<svg width="225.778" height="17.28" overflow="visible" viewBox="0 0 225.778 17.28" fill="none" xmlns="http://www.w3.org/2000/svg">
<g id="Brand name">
<path id="Vector" d="M222.418 11.76V0.239998H225.778V17.04H222.538L213.298 5.52V17.04H209.938V0.239998H213.178L222.418 11.76Z" fill="var(--fill-0, #010203)"/>
<path id="Vector_2" d="M192.407 0.239998H206.807V3.12H195.767V7.2H204.167V10.08H195.767V14.16H207.047V17.04H192.407V0.239998Z" fill="var(--fill-0, #010203)"/>
<path id="Vector_3" d="M177.767 10.08V17.04H174.407V0.239998H177.767V7.2H180.647L185.807 0.239998H189.887L183.767 8.4L190.367 17.04H186.287L181.007 10.08H177.767Z" fill="var(--fill-0, #010203)"/>
<path id="Vector_4" d="M171.296 14.16V17.04H160.016L156.656 13.92V3.36L160.016 0.239998H171.296V3.12H161.576L160.016 4.56V12.72L161.576 14.16H171.296Z" fill="var(--fill-0, #010203)"/>
<path id="Vector_5" d="M151.261 17.04L149.341 12.6H141.421L139.501 17.04H135.781L143.221 0.239998H147.541L154.981 17.04H151.261ZM145.381 3.6L142.741 9.72H148.021L145.381 3.6Z" fill="var(--fill-0, #010203)"/>
<path id="Vector_6" d="M122.335 9.96L119.215 7.08V3.12L122.335 0.239998H133.735V3.12H123.895L122.575 4.32V5.88L123.895 7.08H131.575L134.695 9.96V14.16L131.575 17.04H119.455V14.16H130.015L131.335 12.96V11.16L130.015 9.96H122.335Z" fill="var(--fill-0, #010203)"/>
<path id="Vector_7" d="M98.8013 10.08V7.2H109.121V10.08H98.8013Z" fill="var(--fill-0, #010203)"/>
<path id="Vector_8" d="M84.5119 11.76V0.239998H87.8719V17.04H84.6319L75.3919 5.52V17.04H72.0319V0.239998H75.2719L84.5119 11.76Z" fill="var(--fill-0, #010203)"/>
<path id="Vector_9" d="M54.5006 0.239998H68.9006V3.12H57.8606V7.2H66.2606V10.08H57.8606V14.16H69.1406V17.04H54.5006V0.239998Z" fill="var(--fill-0, #010203)"/>
<path id="Vector_10" d="M45.736 17.04H42.376V3.12H36.136V0.239998H51.976V3.12H45.736V17.04Z" fill="var(--fill-0, #010203)"/>
<path id="Vector_11" d="M22.4447 9.96L19.3247 7.08V3.12L22.4447 0.239998H33.8447V3.12H24.0047L22.6847 4.32V5.88L24.0047 7.08H31.6847L34.8047 9.96V14.16L31.6847 17.04H19.5647V14.16H30.1247L31.4447 12.96V11.16L30.1247 9.96H22.4447Z" fill="var(--fill-0, #010203)"/>
<path id="Vector_12" d="M4.92 2.88L3.36 4.32V12.96L4.92 14.4H11.52L13.08 12.96V4.32L11.52 2.88H4.92ZM3.36 0H13.08L16.44 3.12V14.16L13.08 17.28H3.36L0 14.16V3.12L3.36 0Z" fill="var(--fill-0, #010203)"/>
</g>
</svg>
